<svg xmlns="http://www.w3.org/2000/svg" viewBox="0 0 37.8 37.8"><defs><style>.cls-1,.cls-2{fill:#1dade4;}.cls-2{fill-rule:evenodd;}</style></defs><title>fb</title><g id="Layer_2" data-name="Layer 2"><g id="HOME"><path class="cls-1" d="M18.9,0A18.9,18.9,0,1,1,5.54,5.54,18.83,18.83,0,0,1,18.9,0ZM31.23,6.58a17.44,17.44,0,1,0,5.1,12.32,17.41,17.41,0,0,0-5.1-12.32Z"/><path class="cls-2" d="M20.34,15V13.49a.81.81,0,0,1,.85-.92h2.17V9.26h-3a3.75,3.75,0,0,0-4.06,4V15H14.39V18.9h1.95v9.65H20.2V18.9h2.86l.13-1.52L23.41,15Z"/></g></g></svg>