<svg xmlns="http://www.w3.org/2000/svg" viewBox="0 0 37.8 37.8"><defs><style>.cls-1,.cls-2{fill:#1dade4;}.cls-2{fill-rule:evenodd;}</style></defs><title>g+</title><g id="Layer_2" data-name="Layer 2"><g id="HOME"><path class="cls-1" d="M18.9,0A18.9,18.9,0,1,1,5.54,5.54,18.83,18.83,0,0,1,18.9,0ZM31.22,6.58A17.42,17.42,0,1,0,36.32,18.9,17.37,17.37,0,0,0,31.22,6.58Z"/><path class="cls-2" d="M20.83,17.58c-1.39,0-2.78,0-4.18,0-.4,0-.81,0-1.19,0-.08,0-.21.09-.21.15,0,.81,0,1.61,0,2.45h3.4a1.71,1.71,0,0,1-.11.41,3.29,3.29,0,0,1-3.84,2,3.74,3.74,0,0,1-3.07-4.46,4,4,0,0,1,.25-.87,3.76,3.76,0,0,1,4.19-2.1,3.45,3.45,0,0,1,1.6.83l1.87-1.87a.92.92,0,0,1-.16-.14,6.12,6.12,0,0,0-5.17-1.41A6.42,6.42,0,0,0,9.28,21.2,6.44,6.44,0,0,0,16,25.25a5.7,5.7,0,0,0,3.69-1.73A6.53,6.53,0,0,0,21.33,18c0-.35-.18-.41-.5-.41Zm6.33.2h-.42V17.4c0-.53,0-1.07,0-1.61,0-.08-.1-.24-.15-.24-.48,0-1,0-1.49,0v2.23H22.86v.41c0,.4,0,.81.06,1.2.39,0,.77,0,1.18,0s.66,0,1,0v2.2c.56,0,1.07,0,1.62,0v-2.2h2.2V17.78Z"/></g></g></svg>