<svg xmlns="http://www.w3.org/2000/svg" viewBox="0 0 37.8 37.81"><defs><style>.cls-1,.cls-2{fill:#1dade4;}.cls-2{fill-rule:evenodd;}</style></defs><title>you</title><g id="Layer_2" data-name="Layer 2"><g id="HOME"><path class="cls-1" d="M18.9,0A18.9,18.9,0,1,1,5.54,5.54,18.87,18.87,0,0,1,18.9,0ZM31.22,6.58a17.42,17.42,0,1,0,5.11,12.33A17.36,17.36,0,0,0,31.22,6.58Z"/><path class="cls-2" d="M28.36,14.88a4.53,4.53,0,0,0-.77-2A2.76,2.76,0,0,0,25.66,12c-2.7-.2-6.75-.2-6.75-.2h0s-4,0-6.74.2a2.75,2.75,0,0,0-1.94.86,4.53,4.53,0,0,0-.77,2,30.74,30.74,0,0,0-.2,3.24v1.54a30.22,30.22,0,0,0,.2,3.24,4.6,4.6,0,0,0,.77,2,3.16,3.16,0,0,0,2.13.86c1.54.16,6.56.21,6.56.21s4,0,6.75-.21a2.72,2.72,0,0,0,1.93-.86,4.6,4.6,0,0,0,.77-2,32,32,0,0,0,.19-3.24V18.12c0-1.61-.19-3.24-.19-3.24Zm-6.24,3.81L16.9,21.51V15.85l2.37,1.29Z"/></g></g></svg>