<svg xmlns="http://www.w3.org/2000/svg" xmlns:xlink="http://www.w3.org/1999/xlink" viewBox="0 0 1280 1975"><defs><style>.cls-1,.cls-10,.cls-11,.cls-13,.cls-22,.cls-25,.cls-5,.cls-6,.cls-7,.cls-8,.cls-9{fill:none;}.cls-2{isolation:isolate;}.cls-3{fill:#fff;}.cls-11,.cls-12,.cls-14,.cls-15,.cls-16,.cls-23,.cls-24,.cls-25,.cls-4{opacity:0.34;}.cls-10,.cls-5,.cls-6,.cls-7,.cls-8,.cls-9{stroke:#000;}.cls-11,.cls-22,.cls-25,.cls-5,.cls-6,.cls-7,.cls-8,.cls-9{stroke-miterlimit:10;}.cls-6{stroke-dasharray:12.33 12.33;}.cls-7{stroke-dasharray:10.11 10.11;}.cls-8{stroke-dasharray:12.33 12.33;}.cls-9{stroke-dasharray:10.11 10.11;}.cls-10,.cls-13{stroke-linecap:round;stroke-linejoin:round;}.cls-10{stroke-width:7px;}.cls-11{stroke:#5b55a3;}.cls-12{fill:#5b55a3;}.cls-13{stroke:#231f20;stroke-width:2px;}.cls-14,.cls-17{fill:#5d5d5d;mix-blend-mode:multiply;}.cls-15{fill:#8ad3e2;}.cls-16,.cls-18{fill:#ffc9dd;}.cls-17{opacity:0.15;}.cls-19,.cls-23{fill:#262626;}.cls-20{opacity:0.58;}.cls-21{clip-path:url(#clip-path);}.cls-22{stroke:#262626;stroke-width:1.5px;}.cls-24{fill:#1e9d97;}.cls-25{stroke:#f8d830;}</style><clipPath id="clip-path"><circle class="cls-1" cx="291.91" cy="1617.2" r="106.2"/></clipPath></defs><title>homepage-background</title><g class="cls-2"><g id="Layer_2" data-name="Layer 2"><g id="PARTNERS"><rect class="cls-3" width="1280" height="1975"/><g class="cls-4"><polyline class="cls-5" points="399.72 1818.78 400.86 1823.65 405.73 1822.5"/><line class="cls-6" x1="417.73" y1="1819.69" x2="435.74" y2="1815.46"/><polyline class="cls-5" points="441.74 1814.05 446.61 1812.91 445.46 1808.04"/><line class="cls-7" x1="443.15" y1="1798.2" x2="439.69" y2="1783.44"/><polyline class="cls-5" points="438.54 1778.52 437.39 1773.65 432.52 1774.79"/><line class="cls-8" x1="420.52" y1="1777.61" x2="402.51" y2="1781.84"/><polyline class="cls-5" points="396.51 1783.24 391.64 1784.39 392.79 1789.25"/><line class="cls-9" x1="395.1" y1="1799.1" x2="398.56" y2="1813.86"/></g><g class="cls-4"><circle cx="1204.17" cy="1858.36" r="17.3"/><circle class="cls-5" cx="1144.07" cy="1910.82" r="17.3"/></g><g class="cls-4"><rect class="cls-5" x="118.4" y="362.68" width="57.95" height="57.95" transform="matrix(0.95, -0.3, 0.3, 0.95, -111.14, 62.59)"/><polyline class="cls-5" points="111.02 372.75 122.56 350.56 177.81 333.1 195.27 388.36 183.73 410.55"/><line class="cls-5" x1="177.81" y1="333.1" x2="166.28" y2="355.29"/><polyline class="cls-5" points="44.66 421.95 46.68 417.36 48.7 412.77 52.99 415.37 57.29 417.96"/><polyline class="cls-5" points="57.29 417.96 59.31 413.37 61.33 408.78 65.62 411.38 69.92 413.98"/><polyline class="cls-5" points="69.92 413.98 71.94 409.38 73.96 404.79 78.25 407.39 82.54 409.99"/><polyline class="cls-5" points="82.54 409.99 84.57 405.39 86.59 400.8 90.88 403.4 95.17 406"/><polyline class="cls-5" points="95.17 406 97.19 401.4 99.22 396.81 103.51 399.41 107.8 402.01"/><polyline class="cls-5" points="107.8 402.01 109.82 397.41 111.84 392.82 116.14 395.42 120.43 398.02"/><polyline class="cls-5" points="120.43 398.02 122.45 393.42 124.47 388.83 128.77 391.43 133.06 394.03"/><polyline class="cls-5" points="48.16 433.04 50.18 428.44 52.2 423.85 56.5 426.45 60.79 429.05"/><polyline class="cls-5" points="60.79 429.05 62.81 424.45 64.83 419.86 69.12 422.46 73.42 425.06"/><polyline class="cls-5" points="73.42 425.06 75.44 420.46 77.46 415.87 81.75 418.47 86.05 421.07"/><polyline class="cls-5" points="86.05 421.07 88.07 416.47 90.09 411.88 94.38 414.48 98.67 417.08"/><polyline class="cls-5" points="98.67 417.08 100.69 412.49 102.72 407.89 107.01 410.49 111.3 413.09"/><polyline class="cls-5" points="111.3 413.09 113.32 408.5 115.35 403.9 119.64 406.5 123.93 409.1"/><polyline class="cls-5" points="123.93 409.1 125.95 404.5 127.97 399.91 132.27 402.51 136.56 405.11"/><circle class="cls-10" cx="183.16" cy="408.73" r="20.42" transform="translate(-114.62 74.17) rotate(-17.53)"/></g><polygon class="cls-11" points="1122.14 373.73 1114.12 365.85 1106.1 357.98 1116.93 354.97 1127.76 351.96 1124.95 362.84 1122.14 373.73"/><polygon class="cls-11" points="1134.16 376.88 1126.13 369 1118.11 361.13 1128.94 358.12 1139.78 355.11 1136.97 365.99 1134.16 376.88"/><polyline class="cls-11" points="1068.92 404.19 1073.08 401.38 1077.23 398.57 1079.48 403.06 1081.73 407.54"/><polyline class="cls-11" points="1081.73 407.54 1085.89 404.73 1090.05 401.93 1092.3 406.41 1094.55 410.9"/><polyline class="cls-11" points="1094.55 410.9 1098.7 408.09 1102.86 405.28 1105.11 409.77 1107.35 414.25"/><polyline class="cls-11" points="1107.35 414.25 1111.51 411.44 1115.67 408.64 1117.92 413.12 1120.17 417.61"/><polyline class="cls-11" points="1120.17 417.61 1124.32 414.8 1128.48 412 1130.73 416.48 1132.98 420.97"/><polyline class="cls-11" points="1132.98 296.97 1137.13 294.16 1141.29 291.35 1143.54 295.84 1145.79 300.32"/><polyline class="cls-11" points="1145.79 300.32 1149.95 297.51 1154.11 294.71 1156.36 299.19 1158.6 303.68"/><polyline class="cls-11" points="1065.98 415.43 1070.13 412.62 1074.29 409.81 1076.54 414.3 1078.79 418.78"/><polyline class="cls-11" points="1078.79 418.78 1082.95 415.98 1087.1 413.17 1089.35 417.65 1091.6 422.14"/><polyline class="cls-11" points="1091.6 298.14 1095.76 295.33 1099.91 292.52 1102.16 297.01 1104.41 301.5"/><polyline class="cls-11" points="1104.41 301.5 1108.57 298.69 1112.72 295.88 1114.97 300.37 1117.22 304.85"/><polyline class="cls-11" points="1117.22 304.85 1121.38 302.04 1125.54 299.24 1127.79 303.72 1130.03 308.21"/><polyline class="cls-11" points="1130.03 308.21 1134.19 305.4 1138.35 302.59 1140.6 307.08 1142.84 311.56"/><polyline class="cls-11" points="1142.84 311.56 1147 308.75 1151.16 305.95 1153.41 310.43 1155.65 314.92"/><circle class="cls-12" cx="1176.13" cy="347.14" r="3.98" transform="translate(542.29 1396.91) rotate(-75.32)"/><circle class="cls-11" cx="1172.68" cy="384.9" r="3.98" transform="translate(503.18 1421.77) rotate(-75.32)"/><circle class="cls-12" cx="1185.98" cy="373.46" r="3.98" transform="translate(524.17 1426.1) rotate(-75.32)"/><g id="_Group_" data-name="&lt;Group&gt;" class="cls-4"><g id="_Group_2" data-name="&lt;Group&gt;"><polyline id="_Path_" data-name="&lt;Path&gt;" class="cls-13" points="985.03 981.78 940.91 937.86 956.89 877.7 1016.98 861.45 1061.1 905.37"/><polyline id="_Path_2" data-name="&lt;Path&gt;" class="cls-13" points="1061.1 905.37 1001 921.62 956.99 877.6"/><line id="_Path_3" data-name="&lt;Path&gt;" class="cls-13" x1="1001" y1="921.62" x2="985.03" y2="981.78"/></g><g id="_Group_3" data-name="&lt;Group&gt;"><polygon id="_Path_4" data-name="&lt;Path&gt;" class="cls-13" points="852.81 849.56 896.72 893.67 956.89 877.7 973.14 817.61 929.22 773.49 869.06 789.47 852.81 849.56"/><polyline id="_Path_5" data-name="&lt;Path&gt;" class="cls-13" points="1077.29 845.33 1061.37 905.44 1017.25 861.52 1033.23 801.36 1077.29 845.33"/><polyline id="_Path_6" data-name="&lt;Path&gt;" class="cls-13" points="929.15 773.22 973.06 817.33 1033.23 801.36"/><polyline id="_Path_7" data-name="&lt;Path&gt;" class="cls-13" points="852.81 849.56 896.92 893.47 880.95 953.64"/><polyline id="_Path_8" data-name="&lt;Path&gt;" class="cls-13" points="924.92 997.7 985.03 981.78 941.12 937.66 880.95 953.64 924.92 997.7"/><polyline id="_Path_9" data-name="&lt;Path&gt;" class="cls-13" points="929.22 773.49 912.97 833.58 956.99 877.6"/><line id="_Path_10" data-name="&lt;Path&gt;" class="cls-13" x1="912.97" y1="833.58" x2="852.81" y2="849.56"/></g></g><g class="cls-4"><g id="_Group_4" data-name="&lt;Group&gt;"><polygon id="_Path_11" data-name="&lt;Path&gt;" class="cls-13" points="338.85 1368.12 238.24 1267.54 375.94 1230.67 338.85 1368.12"/><polygon id="_Path_12" data-name="&lt;Path&gt;" class="cls-13" points="328.53 1329.5 276.93 1277.91 347.58 1259.02 328.53 1329.5"/></g><g id="_Group_5" data-name="&lt;Group&gt;"><polyline id="_Path_13" data-name="&lt;Path&gt;" class="cls-13" points="338.85 1368.12 335.57 1380.4 234.97 1279.82 238.24 1267.54"/><line id="_Path_14" data-name="&lt;Path&gt;" class="cls-13" x1="285.93" y1="1286.91" x2="344.31" y2="1271.3"/></g></g><polygon class="cls-14" points="922.19 1479.13 886.74 1346.85 1019.02 1382.29 922.19 1479.13"/><polygon class="cls-15" points="932.28 1447.16 896.84 1314.88 1029.12 1350.32 932.28 1447.16"/><path class="cls-16" d="M903.85,1379.28a61.2,61.2,0,1,1,61.2-61.2A61.27,61.27,0,0,1,903.85,1379.28Zm0-112.36A51.16,51.16,0,1,0,955,1318.08,51.22,51.22,0,0,0,903.85,1266.91Z"/><g class="cls-4"><rect class="cls-17" x="176.87" y="793.92" width="154.76" height="201.96"/><rect class="cls-18" x="195.61" y="775.17" width="154.76" height="201.96"/><circle class="cls-19" cx="248.76" cy="741.66" r="5.46"/><circle class="cls-19" cx="269.03" cy="741.66" r="5.46"/><circle class="cls-19" cx="289.29" cy="741.66" r="5.46"/><circle class="cls-19" cx="309.56" cy="741.66" r="5.46"/><circle class="cls-19" cx="329.83" cy="741.66" r="5.46"/><circle class="cls-19" cx="350.1" cy="741.66" r="5.46"/><circle class="cls-19" cx="370.36" cy="741.66" r="5.46"/><circle class="cls-19" cx="390.63" cy="741.66" r="5.46"/><circle class="cls-19" cx="248.76" cy="759.59" r="5.46"/><circle class="cls-19" cx="269.03" cy="759.59" r="5.46"/><circle class="cls-19" cx="289.29" cy="759.59" r="5.46"/><circle class="cls-19" cx="309.56" cy="759.59" r="5.46"/><circle class="cls-19" cx="329.83" cy="759.59" r="5.46"/><circle class="cls-19" cx="350.1" cy="759.59" r="5.46"/><circle class="cls-19" cx="370.36" cy="759.59" r="5.46"/><circle class="cls-19" cx="390.63" cy="759.59" r="5.46"/><circle class="cls-19" cx="248.76" cy="777.52" r="5.46"/><circle class="cls-19" cx="269.03" cy="777.52" r="5.46"/><circle class="cls-19" cx="289.29" cy="777.52" r="5.46"/><circle class="cls-19" cx="309.56" cy="777.52" r="5.46"/><circle class="cls-19" cx="329.83" cy="777.52" r="5.46"/><circle class="cls-19" cx="350.1" cy="777.52" r="5.46"/><circle class="cls-19" cx="370.36" cy="777.52" r="5.46"/><circle class="cls-19" cx="390.63" cy="777.52" r="5.46"/><circle class="cls-19" cx="248.76" cy="795.45" r="5.46"/><circle class="cls-19" cx="269.03" cy="795.45" r="5.46"/><circle class="cls-19" cx="289.29" cy="795.45" r="5.46"/><circle class="cls-19" cx="309.56" cy="795.45" r="5.46"/><circle class="cls-19" cx="329.83" cy="795.45" r="5.46"/><circle class="cls-19" cx="350.1" cy="795.45" r="5.46"/><circle class="cls-19" cx="370.36" cy="795.45" r="5.46"/><circle class="cls-19" cx="390.63" cy="795.45" r="5.46"/><circle class="cls-19" cx="248.76" cy="813.38" r="5.46"/><circle class="cls-19" cx="269.03" cy="813.38" r="5.46"/><circle class="cls-19" cx="289.29" cy="813.38" r="5.46"/><circle class="cls-19" cx="309.56" cy="813.38" r="5.46"/><circle class="cls-19" cx="329.83" cy="813.38" r="5.46"/><circle class="cls-19" cx="350.1" cy="813.38" r="5.46"/><circle class="cls-19" cx="370.36" cy="813.38" r="5.46"/><circle class="cls-19" cx="390.63" cy="813.38" r="5.46"/><circle class="cls-19" cx="248.76" cy="831.31" r="5.46"/><circle class="cls-19" cx="269.03" cy="831.31" r="5.46"/><circle class="cls-19" cx="289.29" cy="831.31" r="5.46"/><circle class="cls-19" cx="309.56" cy="831.31" r="5.46"/><circle class="cls-19" cx="329.83" cy="831.31" r="5.46"/><circle class="cls-19" cx="350.1" cy="831.31" r="5.46"/><circle class="cls-19" cx="370.36" cy="831.31" r="5.46"/><circle class="cls-19" cx="390.63" cy="831.31" r="5.46"/><circle class="cls-19" cx="248.76" cy="849.23" r="5.46"/><circle class="cls-19" cx="269.03" cy="849.23" r="5.46"/><circle class="cls-19" cx="289.29" cy="849.23" r="5.46"/><circle class="cls-19" cx="309.56" cy="849.23" r="5.46"/><circle class="cls-19" cx="329.83" cy="849.23" r="5.46"/><circle class="cls-19" cx="350.1" cy="849.23" r="5.46"/><circle class="cls-19" cx="370.36" cy="849.23" r="5.46"/><circle class="cls-19" cx="390.63" cy="849.23" r="5.46"/><circle class="cls-19" cx="248.76" cy="867.16" r="5.46"/><circle class="cls-19" cx="269.03" cy="867.16" r="5.46"/><circle class="cls-19" cx="289.29" cy="867.16" r="5.46"/><circle class="cls-19" cx="309.56" cy="867.16" r="5.46"/><circle class="cls-19" cx="329.83" cy="867.16" r="5.46"/><circle class="cls-19" cx="350.1" cy="867.16" r="5.46"/><circle class="cls-19" cx="370.36" cy="867.16" r="5.46"/><circle class="cls-19" cx="390.63" cy="867.16" r="5.46"/><circle class="cls-19" cx="248.76" cy="885.09" r="5.46"/><circle class="cls-19" cx="269.03" cy="885.09" r="5.46"/><circle class="cls-19" cx="289.29" cy="885.09" r="5.46"/><circle class="cls-19" cx="309.56" cy="885.09" r="5.46"/><circle class="cls-19" cx="329.83" cy="885.09" r="5.46"/><circle class="cls-19" cx="350.1" cy="885.09" r="5.46"/><circle class="cls-19" cx="370.36" cy="885.09" r="5.46"/><circle class="cls-19" cx="390.63" cy="885.09" r="5.46"/><circle class="cls-19" cx="248.76" cy="903.02" r="5.46"/><circle class="cls-19" cx="269.03" cy="903.02" r="5.46"/><circle class="cls-19" cx="289.29" cy="903.02" r="5.46"/><circle class="cls-19" cx="309.56" cy="903.02" r="5.46"/><circle class="cls-19" cx="329.83" cy="903.02" r="5.46"/><circle class="cls-19" cx="350.1" cy="903.02" r="5.46"/><circle class="cls-19" cx="370.36" cy="903.02" r="5.46"/><circle class="cls-19" cx="390.63" cy="903.02" r="5.46"/><circle class="cls-19" cx="248.76" cy="920.95" r="5.46"/><circle class="cls-19" cx="269.03" cy="920.95" r="5.46"/><circle class="cls-19" cx="289.29" cy="920.95" r="5.46"/><circle class="cls-19" cx="309.56" cy="920.95" r="5.46"/><circle class="cls-19" cx="329.83" cy="920.95" r="5.46"/><circle class="cls-19" cx="350.1" cy="920.95" r="5.46"/><circle class="cls-19" cx="370.36" cy="920.95" r="5.46"/><circle class="cls-19" cx="390.63" cy="920.95" r="5.46"/><circle class="cls-19" cx="248.76" cy="938.88" r="5.46"/><circle class="cls-19" cx="269.03" cy="938.88" r="5.46"/><circle class="cls-19" cx="289.29" cy="938.88" r="5.46"/><circle class="cls-19" cx="309.56" cy="938.88" r="5.46"/><circle class="cls-19" cx="329.83" cy="938.88" r="5.46"/><circle class="cls-19" cx="350.1" cy="938.88" r="5.46"/><circle class="cls-19" cx="370.36" cy="938.88" r="5.46"/><circle class="cls-19" cx="390.63" cy="938.88" r="5.46"/></g><g class="cls-4"><circle class="cls-18" cx="194.64" cy="1675.5" r="69.35"/><g class="cls-20"><g class="cls-21"><line class="cls-22" x1="160.22" y1="1483.58" x2="160.22" y2="1750.82"/><line class="cls-22" x1="176.44" y1="1483.58" x2="176.44" y2="1750.82"/><line class="cls-22" x1="192.66" y1="1483.58" x2="192.66" y2="1750.82"/><line class="cls-22" x1="208.88" y1="1483.58" x2="208.88" y2="1750.82"/><line class="cls-22" x1="225.1" y1="1483.58" x2="225.1" y2="1750.82"/><line class="cls-22" x1="241.32" y1="1483.58" x2="241.32" y2="1750.82"/><line class="cls-22" x1="257.54" y1="1483.58" x2="257.54" y2="1750.82"/><line class="cls-22" x1="273.76" y1="1483.58" x2="273.76" y2="1750.82"/><line class="cls-22" x1="289.97" y1="1483.58" x2="289.97" y2="1750.82"/><line class="cls-22" x1="306.19" y1="1483.58" x2="306.19" y2="1750.82"/><line class="cls-22" x1="322.41" y1="1483.58" x2="322.41" y2="1750.82"/><line class="cls-22" x1="338.63" y1="1483.58" x2="338.63" y2="1750.82"/><line class="cls-22" x1="355.63" y1="1483.58" x2="355.63" y2="1750.82"/><line class="cls-22" x1="372.62" y1="1483.58" x2="372.62" y2="1750.82"/><line class="cls-22" x1="389.61" y1="1483.58" x2="389.61" y2="1750.82"/><line class="cls-22" x1="406.6" y1="1483.58" x2="406.6" y2="1750.82"/><line class="cls-22" x1="423.6" y1="1483.58" x2="423.6" y2="1750.82"/><line class="cls-22" x1="425.53" y1="1485.51" x2="158.29" y2="1485.51"/><line class="cls-22" x1="425.53" y1="1501.73" x2="158.29" y2="1501.73"/><line class="cls-22" x1="425.53" y1="1517.95" x2="158.29" y2="1517.95"/><line class="cls-22" x1="425.53" y1="1534.17" x2="158.29" y2="1534.17"/><line class="cls-22" x1="425.53" y1="1550.39" x2="158.29" y2="1550.39"/><line class="cls-22" x1="425.53" y1="1566.61" x2="158.29" y2="1566.61"/><line class="cls-22" x1="425.53" y1="1582.83" x2="158.29" y2="1582.83"/><line class="cls-22" x1="425.53" y1="1599.05" x2="158.29" y2="1599.05"/><line class="cls-22" x1="425.53" y1="1615.27" x2="158.29" y2="1615.27"/><line class="cls-22" x1="425.53" y1="1631.49" x2="158.29" y2="1631.49"/><line class="cls-22" x1="425.53" y1="1647.71" x2="158.29" y2="1647.71"/><line class="cls-22" x1="425.53" y1="1663.93" x2="158.29" y2="1663.93"/><line class="cls-22" x1="425.53" y1="1680.92" x2="158.29" y2="1680.92"/><line class="cls-22" x1="425.53" y1="1697.91" x2="158.29" y2="1697.91"/><line class="cls-22" x1="425.53" y1="1714.91" x2="158.29" y2="1714.91"/><line class="cls-22" x1="425.53" y1="1731.9" x2="158.29" y2="1731.9"/><line class="cls-22" x1="425.53" y1="1748.89" x2="158.29" y2="1748.89"/></g></g></g><circle class="cls-16" cx="939.67" cy="1777.38" r="51.83"/><path class="cls-15" d="M974.15,1806.55a40.59,40.59,0,1,1,40.59-40.59A40.64,40.64,0,0,1,974.15,1806.55Zm0-74.52a33.93,33.93,0,1,0,33.93,33.93A34,34,0,0,0,974.15,1732Z"/><path class="cls-23" d="M1057.52,1826.32a9.17,9.17,0,0,1-7,1.41c-1.8-.2-3.36-.38-5.4,1s-2.45,2.9-2.92,4.65a9.22,9.22,0,0,1-10.92,7.43c-1.8-.2-3.36-.38-5.39,1a1.21,1.21,0,1,1-1.36-2,9.17,9.17,0,0,1,7-1.41c1.8.2,3.36.38,5.4-1s2.44-2.9,2.92-4.65a9.23,9.23,0,0,1,10.93-7.43c1.8.2,3.36.38,5.4-1s2.45-2.9,2.92-4.65a9.18,9.18,0,0,1,3.9-6,1.21,1.21,0,1,1,1.36,2c-2,1.38-2.45,2.9-2.92,4.65A9.18,9.18,0,0,1,1057.52,1826.32Z"/><g class="cls-4"><circle class="cls-5" cx="135.35" cy="1754.74" r="8.08" transform="matrix(0.93, -0.36, 0.36, 0.93, -619.52, 164.9)"/><circle cx="174.32" cy="1821.05" r="8.08" transform="translate(-640.69 183.26) rotate(-20.99)"/><circle class="cls-5" cx="182.72" cy="1786.48" r="8.08" transform="translate(-627.75 183.97) rotate(-20.99)"/></g><g class="cls-4"><circle class="cls-5" cx="356.14" cy="1877.66" r="8.08" transform="translate(-648.9 252.13) rotate(-20.99)"/><circle cx="395.11" cy="1943.98" r="8.08" transform="translate(-670.07 270.49) rotate(-20.99)"/><circle class="cls-5" cx="403.5" cy="1909.4" r="8.08" transform="translate(-657.13 271.2) rotate(-20.99)"/></g><g class="cls-4"><circle class="cls-5" cx="744.32" cy="1796.05" r="8.08" transform="translate(-593.92 385.75) rotate(-20.99)"/><circle cx="783.29" cy="1862.37" r="8.08" transform="translate(-615.08 404.11) rotate(-20.99)"/><circle class="cls-5" cx="791.68" cy="1827.79" r="8.08" transform="translate(-602.14 404.82) rotate(-20.99)"/></g><line class="cls-24" x1="663" y1="369" x2="923" y2="369"/><path class="cls-25" d="M624,369.5"/><path class="cls-25" d="M364,369.5"/><path class="cls-25" d="M828,368.5"/><path class="cls-25" d="M669,368.5"/></g></g></g></svg>