<svg xmlns="http://www.w3.org/2000/svg" viewBox="0 0 20.9 19.03"><defs><style>.cls-1{fill:#3c3c3b;}</style></defs><title>reset</title><g id="Layer_2" data-name="Layer 2"><g id="search"><path class="cls-1" d="M17,3.53A9.41,9.41,0,0,0,8.48.06,9.52,9.52,0,0,0,.81,5.79a9.81,9.81,0,0,0,.53,8.89,8.86,8.86,0,0,0,.8,1.25,7.9,7.9,0,0,0,8.76,2.69H11a.21.21,0,0,0,.21-.1l.1,0a.24.24,0,0,0,0-.46,8.49,8.49,0,0,1-5.45-4.1,6.24,6.24,0,0,1,.44-6.55A4.87,4.87,0,0,1,7.9,6c.29-.09.57-.18.85-.25a4.26,4.26,0,0,1,3.56.55l.32.24a9.15,9.15,0,0,1,1.42,5.57.25.25,0,0,0,.46.12c0,.26-.08.52-.14.77s.44.47.51.14a7.25,7.25,0,0,0-1-6,5.48,5.48,0,0,0-.57-.63,4.64,4.64,0,0,0-.59-.56A4.67,4.67,0,0,0,7.83,4.63a5.29,5.29,0,0,0-3.38,3,3.59,3.59,0,0,0-.55,1.11,8.32,8.32,0,0,0,1.22,6.45A7.58,7.58,0,0,0,8.29,18,8.4,8.4,0,0,1,3,15.56c-1.94-2.17-2-5.45-1.4-8.15A11.3,11.3,0,0,1,2,6.1,10.4,10.4,0,0,1,6.08,2a9.38,9.38,0,0,1,1.14-.52,9.87,9.87,0,0,1,7.55,1.24,7,7,0,0,1,1.4,1.19,9.34,9.34,0,0,1,1.33,2.3c.06.18.11.35.15.54a15.61,15.61,0,0,1-.1,5.66c0,.3.41.44.47.13a20.05,20.05,0,0,0,.44-3.84,10.12,10.12,0,0,1-.36,3.64c-.08.27.32.37.41.11A9.56,9.56,0,0,0,17,3.53ZM7.45.7a9.34,9.34,0,0,1,2-.24A9.23,9.23,0,0,0,7.18,1l-.38.15A7.42,7.42,0,0,0,1.62,5.69l-.15.43a10.26,10.26,0,0,0-1,3.17,9.69,9.69,0,0,1,.33-2.1A9.12,9.12,0,0,1,7.45.7Zm-.64,17.4q.43.1.88.18A7.76,7.76,0,0,1,6.81,18.09Zm-6-8.27a10.47,10.47,0,0,0,.47,3.55A8.82,8.82,0,0,1,.84,9.82ZM5,13.2A6.8,6.8,0,0,1,4.82,8a3.29,3.29,0,0,1,.66-.74,5.39,5.39,0,0,1,.59-.41A6.76,6.76,0,0,0,5,13.2ZM10.33,5A5,5,0,0,0,9,5.11a5.36,5.36,0,0,0-1.41.49,9,9,0,0,0-1.8.83A4.85,4.85,0,0,1,10.33,5ZM6.49,16.1a10.89,10.89,0,0,0,2.13,1.46A7,7,0,0,1,6.49,16.1Z"/><path class="cls-1" d="M20.53,12.42l-5,3.51-.4-.49a56.13,56.13,0,0,0-3.49-5,.24.24,0,0,0-.38,0l-.13-.15c-.18-.21-.5.06-.38.29a25.33,25.33,0,0,0,4.4,5.86h0a.25.25,0,0,0,.37.19l.31-.16-.1.08c-.22.18.07.57.31.4,1.05-.75,2.11-1.49,3.14-2.26a.24.24,0,0,0,.07-.31l1.26-1a.24.24,0,0,0,0-.36l.21-.15C21.06,12.67,20.8,12.22,20.53,12.42Z"/></g></g></svg>